<mxfile host="Electron" modified="2024-07-25T01:51:40.572Z" agent="Mozilla/5.0 (Windows NT 10.0; Win64; x64) AppleWebKit/537.36 (KHTML, like Gecko) draw.io/24.2.5 Chrome/120.0.6099.109 Electron/28.1.0 Safari/537.36" etag="ZXrXxOO2_9qzW1Ow1Eu5" version="24.2.5" type="device">
  <diagram name="Page-1" id="mE0QhDXyF-fIicroDeat">
    <mxGraphModel dx="1098" dy="1198" grid="1" gridSize="10" guides="1" tooltips="1" connect="1" arrows="1" fold="1" page="1" pageScale="1" pageWidth="850" pageHeight="1100" math="0" shadow="0">
      <root>
        <mxCell id="0" />
        <mxCell id="1" parent="0" />
        <mxCell id="cVfaQ0aekJ8A_5ykzbQj-21" value="Maven Central Repository (remote)" style="rounded=0;whiteSpace=wrap;html=1;verticalAlign=top;fontStyle=1;fontSize=14;strokeWidth=2;dashed=1;" vertex="1" parent="1">
          <mxGeometry x="670" y="305" width="250" height="240" as="geometry" />
        </mxCell>
        <mxCell id="cVfaQ0aekJ8A_5ykzbQj-1" style="edgeStyle=orthogonalEdgeStyle;rounded=0;orthogonalLoop=1;jettySize=auto;html=1;entryX=0;entryY=0.5;entryDx=0;entryDy=0;startArrow=classic;startFill=1;" edge="1" parent="1" source="cVfaQ0aekJ8A_5ykzbQj-2" target="cVfaQ0aekJ8A_5ykzbQj-14">
          <mxGeometry relative="1" as="geometry">
            <mxPoint x="490" y="425" as="targetPoint" />
          </mxGeometry>
        </mxCell>
        <mxCell id="cVfaQ0aekJ8A_5ykzbQj-2" value="" style="rounded=0;whiteSpace=wrap;html=1;fillColor=#b0e3e6;strokeColor=#0e8088;" vertex="1" parent="1">
          <mxGeometry x="210" y="280" width="190" height="290" as="geometry" />
        </mxCell>
        <mxCell id="cVfaQ0aekJ8A_5ykzbQj-3" value="&lt;h1 style=&quot;margin-top: 0px;&quot;&gt;My Application&lt;/h1&gt;&lt;p&gt;Spring&lt;/p&gt;&lt;p&gt;Hibernate&lt;/p&gt;&lt;p&gt;Commons Logging&lt;/p&gt;&lt;p&gt;Json&lt;/p&gt;&lt;p&gt;...&lt;/p&gt;" style="text;html=1;whiteSpace=wrap;overflow=hidden;rounded=0;" vertex="1" parent="1">
          <mxGeometry x="215" y="285" width="180" height="180" as="geometry" />
        </mxCell>
        <mxCell id="cVfaQ0aekJ8A_5ykzbQj-9" value="Spring JAR files" style="rounded=0;whiteSpace=wrap;html=1;fillColor=#d5e8d4;strokeColor=#82b366;" vertex="1" parent="1">
          <mxGeometry x="710" y="345" width="170" height="30" as="geometry" />
        </mxCell>
        <mxCell id="cVfaQ0aekJ8A_5ykzbQj-10" value="Hibernate JAR files" style="rounded=0;whiteSpace=wrap;html=1;fillColor=#dae8fc;strokeColor=#6c8ebf;" vertex="1" parent="1">
          <mxGeometry x="710" y="395" width="170" height="30" as="geometry" />
        </mxCell>
        <mxCell id="cVfaQ0aekJ8A_5ykzbQj-11" value="Apache Commons JAR files" style="rounded=0;whiteSpace=wrap;html=1;fillColor=#f8cecc;strokeColor=#b85450;" vertex="1" parent="1">
          <mxGeometry x="710" y="445" width="170" height="30" as="geometry" />
        </mxCell>
        <mxCell id="cVfaQ0aekJ8A_5ykzbQj-12" value="JSON JAR files" style="rounded=0;whiteSpace=wrap;html=1;fillColor=#fff2cc;strokeColor=#d6b656;" vertex="1" parent="1">
          <mxGeometry x="710" y="495" width="170" height="30" as="geometry" />
        </mxCell>
        <mxCell id="cVfaQ0aekJ8A_5ykzbQj-13" value="Developer" style="rounded=0;whiteSpace=wrap;html=1;fillColor=#76608a;fontColor=#ffffff;strokeColor=#432D57;" vertex="1" parent="1">
          <mxGeometry x="245" y="480" width="120" height="60" as="geometry" />
        </mxCell>
        <mxCell id="cVfaQ0aekJ8A_5ykzbQj-23" style="edgeStyle=orthogonalEdgeStyle;rounded=0;orthogonalLoop=1;jettySize=auto;html=1;startArrow=classic;startFill=1;" edge="1" parent="1" source="cVfaQ0aekJ8A_5ykzbQj-14" target="cVfaQ0aekJ8A_5ykzbQj-21">
          <mxGeometry relative="1" as="geometry" />
        </mxCell>
        <mxCell id="cVfaQ0aekJ8A_5ykzbQj-14" value="Maven" style="rounded=0;whiteSpace=wrap;html=1;fillColor=#d80073;strokeColor=#A50040;fontColor=#ffffff;" vertex="1" parent="1">
          <mxGeometry x="490" y="395" width="120" height="60" as="geometry" />
        </mxCell>
      </root>
    </mxGraphModel>
  </diagram>
</mxfile>
